<?xml version="1.0" encoding="UTF-8" standalone="no"?>
<!-- Generator: Adobe Illustrator 15.0.2, SVG Export Plug-In . SVG Version: 6.00 Build 0)  -->

<svg
   xmlns:dc="http://purl.org/dc/elements/1.1/"
   xmlns:cc="http://creativecommons.org/ns#"
   xmlns:rdf="http://www.w3.org/1999/02/22-rdf-syntax-ns#"
   xmlns:svg="http://www.w3.org/2000/svg"
   xmlns="http://www.w3.org/2000/svg"
   xmlns:xlink="http://www.w3.org/1999/xlink"
   xmlns:sodipodi="http://sodipodi.sourceforge.net/DTD/sodipodi-0.dtd"
   xmlns:inkscape="http://www.inkscape.org/namespaces/inkscape"
   version="1.1"
   id="Layer_1"
   x="0px"
   y="0px"
   width="96"
   height="96"
   viewBox="0 0 96 96"
   enable-background="new 0 0 400 400"
   xml:space="preserve"
   inkscape:version="0.48.5 r10040"
   sodipodi:docname="solydx-user-generic-female-flat.svg"
   inkscape:export-filename="/home/WERK/artwork/solydxk-flat/solydx/solydx-user-generic-female-flat.png"
   inkscape:export-xdpi="90"
   inkscape:export-ydpi="90"><metadata
     id="metadata21"><rdf:RDF><cc:Work
         rdf:about=""><dc:format>image/svg+xml</dc:format><dc:type
           rdf:resource="http://purl.org/dc/dcmitype/StillImage" /><dc:title></dc:title></cc:Work></rdf:RDF></metadata><defs
     id="defs19"><linearGradient
       inkscape:collect="always"
       xlink:href="#SVGID_2_-3-5"
       id="linearGradient4790"
       gradientUnits="userSpaceOnUse"
       x1="528.78522"
       y1="333.30319"
       x2="611.23712"
       y2="512.85382" /><linearGradient
       id="SVGID_2_-3-5"
       gradientUnits="userSpaceOnUse"
       x1="528.78522"
       y1="333.30319"
       x2="611.23712"
       y2="512.85382"><stop
         offset="0"
         style="stop-color:#00AEEF"
         id="stop246-3-0" /><stop
         offset="0.4876"
         style="stop-color:#82D4F7"
         id="stop248-6-6" /><stop
         offset="1"
         style="stop-color:#004282"
         id="stop250-9-8" /></linearGradient><linearGradient
       inkscape:collect="always"
       xlink:href="#SVGID_3_-0-9"
       id="linearGradient4792"
       gradientUnits="userSpaceOnUse"
       gradientTransform="matrix(0.7071,0.7071,-0.7071,0.7071,367.1977,-260.9773)"
       x1="519.60638"
       y1="358.85211"
       x2="719.65588"
       y2="322.70859" /><linearGradient
       id="SVGID_3_-0-9"
       gradientUnits="userSpaceOnUse"
       x1="519.60638"
       y1="358.85211"
       x2="719.65588"
       y2="322.70859"
       gradientTransform="matrix(0.7071,0.7071,-0.7071,0.7071,367.1977,-260.9773)"><stop
         offset="0"
         style="stop-color:#00AEEF"
         id="stop257-5-3" /><stop
         offset="0.4876"
         style="stop-color:#82D4F7"
         id="stop259-1-5" /><stop
         offset="1"
         style="stop-color:#004282"
         id="stop261-5-5" /></linearGradient><linearGradient
       inkscape:collect="always"
       xlink:href="#SVGID_4_-1-4"
       id="linearGradient4794"
       gradientUnits="userSpaceOnUse"
       gradientTransform="matrix(0.7071,0.7071,-0.7071,0.7071,367.1977,-260.9773)"
       x1="572.20752"
       y1="405.03909"
       x2="688.20203"
       y2="252.0607" /><linearGradient
       id="SVGID_4_-1-4"
       gradientUnits="userSpaceOnUse"
       x1="572.20752"
       y1="405.03909"
       x2="688.20203"
       y2="252.0607"
       gradientTransform="matrix(0.7071,0.7071,-0.7071,0.7071,367.1977,-260.9773)"><stop
         offset="0.0041"
         style="stop-color:#82D4F7"
         id="stop268-0-4" /><stop
         offset="1"
         style="stop-color:#2E3192"
         id="stop270-9-2" /></linearGradient><linearGradient
       inkscape:collect="always"
       xlink:href="#SVGID_2_-3-5"
       id="linearGradient3078"
       gradientUnits="userSpaceOnUse"
       x1="528.78522"
       y1="333.30319"
       x2="611.23712"
       y2="512.85382" /><linearGradient
       inkscape:collect="always"
       xlink:href="#SVGID_3_-0-9"
       id="linearGradient3080"
       gradientUnits="userSpaceOnUse"
       gradientTransform="matrix(0.7071,0.7071,-0.7071,0.7071,367.1977,-260.9773)"
       x1="519.60638"
       y1="358.85211"
       x2="719.65588"
       y2="322.70859" /><linearGradient
       inkscape:collect="always"
       xlink:href="#SVGID_4_-1-4"
       id="linearGradient3082"
       gradientUnits="userSpaceOnUse"
       gradientTransform="matrix(0.7071,0.7071,-0.7071,0.7071,367.1977,-260.9773)"
       x1="572.20752"
       y1="405.03909"
       x2="688.20203"
       y2="252.0607" /></defs><sodipodi:namedview
     pagecolor="#ffffff"
     bordercolor="#666666"
     borderopacity="1"
     objecttolerance="10"
     gridtolerance="10"
     guidetolerance="10"
     inkscape:pageopacity="0"
     inkscape:pageshadow="2"
     inkscape:window-width="1920"
     inkscape:window-height="1017"
     id="namedview17"
     showgrid="false"
     inkscape:zoom="4.1146755"
     inkscape:cx="-50.686606"
     inkscape:cy="62.435598"
     inkscape:window-x="-4"
     inkscape:window-y="-4"
     inkscape:window-maximized="1"
     inkscape:current-layer="Layer_1"
     fit-margin-top="0"
     fit-margin-left="0"
     fit-margin-right="0"
     fit-margin-bottom="0" /><rect
     style="fill:#ffffff;fill-opacity:1;stroke:none"
     id="rect3009"
     width="96"
     height="96"
     x="0.3996565"
     y="0.19784766" /><g
     id="g3023"
     transform="translate(161.52395,48.130485)"><path
       transform="matrix(14.021778,-14.021778,14.021778,14.021778,-203.79155,-865.32034)"
       d="m -24.88983,35.228813 c 0,1.493041 -1.210349,2.70339 -2.70339,2.70339 -1.493041,0 -2.703389,-1.210349 -2.703389,-2.70339 0,-1.493041 1.210348,-2.703389 2.703389,-2.703389 1.493041,0 2.70339,1.210348 2.70339,2.703389 z"
       sodipodi:ry="2.7033896"
       sodipodi:rx="2.7033896"
       sodipodi:cy="35.228813"
       sodipodi:cx="-27.59322"
       id="path2990-3-9-6-2-5-1"
       style="fill:#ff9a36;fill-opacity:1;stroke:#666666;stroke-width:0.20171674;stroke-miterlimit:4;stroke-opacity:1;stroke-dasharray:none"
       sodipodi:type="arc" /><path
       inkscape:connector-curvature="0"
       id="path2990-9-5-9-6-0-5-3"
       d="m -140.76853,-27.5733 c -12.75283,12.517 -18.64685,29.0951 -18.0087,45.491 15.08952,0.5818 30.01159,6.437 41.53171,17.7441 11.52777,11.3147 17.56236,26.0118 18.1483,40.8324 16.69553,0.6185 33.53257,-5.2343 46.2782,-17.7443 12.73439,-12.4989 18.74792,-29.1037 18.1483,-45.491 -15.11322,-0.5662 -30.06367,-6.4882 -41.6015,-17.8127 -11.54919,-11.3356 -17.58162,-25.9835 -18.1483,-40.8322 -16.69597,-0.5886 -33.61362,5.3138 -46.34801,17.8127 z"
       style="fill:#ff7f01;fill-opacity:1;stroke:#666666;stroke-width:4;stroke-miterlimit:4;stroke-opacity:1;stroke-dasharray:none" /><path
       transform="matrix(14.021778,-14.021778,14.021778,14.021778,-203.79155,-865.32034)"
       d="m -24.88983,35.228813 c 0,1.493041 -1.210349,2.70339 -2.70339,2.70339 -1.493041,0 -2.703389,-1.210349 -2.703389,-2.70339 0,-1.493041 1.210348,-2.703389 2.703389,-2.703389 1.493041,0 2.70339,1.210348 2.70339,2.703389 z"
       sodipodi:ry="2.7033896"
       sodipodi:rx="2.7033896"
       sodipodi:cy="35.228813"
       sodipodi:cx="-27.59322"
       id="path2990-0-4-7-1-7-6-0-4-1"
       style="fill:none;stroke:#666666;stroke-width:0.20171674;stroke-miterlimit:4;stroke-opacity:0.46875;stroke-dasharray:none"
       sodipodi:type="arc" /></g><path
     id="user-8-icon"
     d="m 75.082641,96.243037 31.027849,0 c 7.3e-4,-9.50638 0.78267,-14.745184 -9.391239,-17.037745 -10.17788,-2.292545 -22.32603,-4.301011 -17.73745,-12.750309 0.90361,-1.663788 8.56214,0.725619 8.73076,-4.597625 0.72152,-22.778227 -3.30909,-34.874812 -17.1039,-34.874812 -13.979352,0 -19.421132,11.954605 -18.516811,34.797193 0.262007,6.618127 8.184361,2.900251 9.171141,4.675244 4.72586,8.500985 -6.805489,10.506721 -16.764923,12.750309 -10.174302,2.29139 -9.392031,7.531365 -9.392031,17.037745 l 31.027444,0 z"
     inkscape:connector-curvature="0"
     style="fill:#ffffff;stroke:none;stroke-opacity:1"
     sodipodi:nodetypes="ccccsssccccc" /></svg>